<svg width="183" height="50" viewBox="0 0 183 50" fill="none" xmlns="http://www.w3.org/2000/svg">
<path d="M64.178 33C64.0167 33 63.8847 32.9487 63.782 32.846C63.6793 32.7433 63.628 32.6113 63.628 32.45V18.15C63.628 17.9887 63.6793 17.8567 63.782 17.754C63.8847 17.6513 64.0167 17.6 64.178 17.6H70.712C71.9293 17.6 72.9267 17.776 73.704 18.128C74.4813 18.48 75.0533 18.9787 75.42 19.624C75.8013 20.2693 75.992 21.0247 75.992 21.89C75.992 22.4327 75.8893 22.9093 75.684 23.32C75.4933 23.7307 75.2513 24.068 74.958 24.332C74.6793 24.596 74.408 24.794 74.144 24.926C74.716 25.19 75.2147 25.63 75.64 26.246C76.08 26.8473 76.3 27.566 76.3 28.402C76.3 29.326 76.0947 30.1327 75.684 30.822C75.2733 31.5113 74.6647 32.0467 73.858 32.428C73.0513 32.8093 72.0687 33 70.91 33H64.178ZM67.126 30.426H70.492C71.2107 30.426 71.7533 30.228 72.12 29.832C72.4867 29.4213 72.67 28.9373 72.67 28.38C72.67 27.808 72.4793 27.3313 72.098 26.95C71.7313 26.554 71.196 26.356 70.492 26.356H67.126V30.426ZM67.126 23.826H70.294C70.9833 23.826 71.4967 23.6573 71.834 23.32C72.186 22.968 72.362 22.5207 72.362 21.978C72.362 21.4353 72.186 21.0027 71.834 20.68C71.4967 20.3427 70.9833 20.174 70.294 20.174H67.126V23.826ZM83.9189 33.22C82.7015 33.22 81.6822 33.022 80.8609 32.626C80.0395 32.2153 79.4089 31.636 78.9689 30.888C78.5435 30.14 78.3089 29.2673 78.2649 28.27C78.2502 27.9767 78.2429 27.6467 78.2429 27.28C78.2429 26.8987 78.2502 26.5687 78.2649 26.29C78.3089 25.278 78.5582 24.4053 79.0129 23.672C79.4675 22.924 80.1055 22.352 80.9269 21.956C81.7482 21.5453 82.7455 21.34 83.9189 21.34C85.0775 21.34 86.0675 21.5453 86.8889 21.956C87.7102 22.352 88.3482 22.924 88.8029 23.672C89.2575 24.4053 89.5069 25.278 89.5509 26.29C89.5802 26.5687 89.5949 26.8987 89.5949 27.28C89.5949 27.6467 89.5802 27.9767 89.5509 28.27C89.5069 29.2673 89.2649 30.14 88.8249 30.888C88.3995 31.636 87.7762 32.2153 86.9549 32.626C86.1335 33.022 85.1215 33.22 83.9189 33.22ZM83.9189 30.8C84.6375 30.8 85.1802 30.58 85.5469 30.14C85.9135 29.6853 86.1115 29.0253 86.1409 28.16C86.1555 27.94 86.1629 27.6467 86.1629 27.28C86.1629 26.9133 86.1555 26.62 86.1409 26.4C86.1115 25.5493 85.9135 24.8967 85.5469 24.442C85.1802 23.9873 84.6375 23.76 83.9189 23.76C83.2002 23.76 82.6502 23.9873 82.2689 24.442C81.9022 24.8967 81.7042 25.5493 81.6749 26.4C81.6602 26.62 81.6529 26.9133 81.6529 27.28C81.6529 27.6467 81.6602 27.94 81.6749 28.16C81.7042 29.0253 81.9022 29.6853 82.2689 30.14C82.6502 30.58 83.2002 30.8 83.9189 30.8ZM97.1318 33.22C95.9144 33.22 94.8951 33.022 94.0738 32.626C93.2524 32.2153 92.6218 31.636 92.1818 30.888C91.7564 30.14 91.5218 29.2673 91.4778 28.27C91.4631 27.9767 91.4558 27.6467 91.4558 27.28C91.4558 26.8987 91.4631 26.5687 91.4778 26.29C91.5218 25.278 91.7711 24.4053 92.2258 23.672C92.6804 22.924 93.3184 22.352 94.1398 21.956C94.9611 21.5453 95.9584 21.34 97.1318 21.34C98.2904 21.34 99.2804 21.5453 100.102 21.956C100.923 22.352 101.561 22.924 102.016 23.672C102.47 24.4053 102.72 25.278 102.764 26.29C102.793 26.5687 102.808 26.8987 102.808 27.28C102.808 27.6467 102.793 27.9767 102.764 28.27C102.72 29.2673 102.478 30.14 102.038 30.888C101.612 31.636 100.989 32.2153 100.168 32.626C99.3464 33.022 98.3344 33.22 97.1318 33.22ZM97.1318 30.8C97.8504 30.8 98.3931 30.58 98.7598 30.14C99.1264 29.6853 99.3244 29.0253 99.3538 28.16C99.3684 27.94 99.3758 27.6467 99.3758 27.28C99.3758 26.9133 99.3684 26.62 99.3538 26.4C99.3244 25.5493 99.1264 24.8967 98.7598 24.442C98.3931 23.9873 97.8504 23.76 97.1318 23.76C96.4131 23.76 95.8631 23.9873 95.4818 24.442C95.1151 24.8967 94.9171 25.5493 94.8878 26.4C94.8731 26.62 94.8658 26.9133 94.8658 27.28C94.8658 27.6467 94.8731 27.94 94.8878 28.16C94.9171 29.0253 95.1151 29.6853 95.4818 30.14C95.8631 30.58 96.4131 30.8 97.1318 30.8ZM105.659 33C105.497 33 105.365 32.9487 105.263 32.846C105.16 32.7433 105.109 32.6113 105.109 32.45V17.93C105.109 17.7687 105.16 17.6367 105.263 17.534C105.365 17.4313 105.497 17.38 105.659 17.38H107.815C107.961 17.38 108.086 17.4313 108.189 17.534C108.291 17.6367 108.343 17.7687 108.343 17.93V25.366L111.731 21.934C111.848 21.8313 111.951 21.7433 112.039 21.67C112.141 21.5967 112.295 21.56 112.501 21.56H114.987C115.133 21.56 115.251 21.6113 115.339 21.714C115.427 21.802 115.471 21.912 115.471 22.044C115.471 22.1027 115.456 22.1687 115.427 22.242C115.397 22.3153 115.346 22.374 115.273 22.418L111.027 26.686L115.823 32.164C115.955 32.2813 116.021 32.3987 116.021 32.516C116.021 32.648 115.969 32.7653 115.867 32.868C115.779 32.956 115.669 33 115.537 33H112.985C112.765 33 112.603 32.9633 112.501 32.89C112.413 32.8167 112.31 32.7287 112.193 32.626L108.343 28.314V32.45C108.343 32.6113 108.291 32.7433 108.189 32.846C108.086 32.9487 107.961 33 107.815 33H105.659ZM118.119 33C117.972 33 117.848 32.9487 117.745 32.846C117.642 32.7433 117.591 32.6113 117.591 32.45V22.11C117.591 21.9487 117.642 21.8167 117.745 21.714C117.848 21.6113 117.972 21.56 118.119 21.56H120.165C120.312 21.56 120.436 21.6113 120.539 21.714C120.656 21.8167 120.715 21.9487 120.715 22.11V22.858C121.008 22.4473 121.412 22.0953 121.925 21.802C122.453 21.5087 123.076 21.3547 123.795 21.34C125.496 21.3107 126.662 21.956 127.293 23.276C127.63 22.704 128.114 22.242 128.745 21.89C129.39 21.5233 130.094 21.34 130.857 21.34C131.62 21.34 132.309 21.516 132.925 21.868C133.541 22.2053 134.025 22.7333 134.377 23.452C134.744 24.156 134.927 25.0653 134.927 26.18V32.45C134.927 32.6113 134.876 32.7433 134.773 32.846C134.67 32.9487 134.546 33 134.399 33H132.221C132.074 33 131.95 32.9487 131.847 32.846C131.744 32.7433 131.693 32.6113 131.693 32.45V26.356C131.693 25.7547 131.605 25.2853 131.429 24.948C131.253 24.596 131.018 24.3467 130.725 24.2C130.446 24.0533 130.131 23.98 129.779 23.98C129.471 23.98 129.17 24.0533 128.877 24.2C128.598 24.3467 128.364 24.596 128.173 24.948C127.997 25.2853 127.909 25.7547 127.909 26.356V32.45C127.909 32.6113 127.858 32.7433 127.755 32.846C127.652 32.9487 127.52 33 127.359 33H125.203C125.042 33 124.91 32.9487 124.807 32.846C124.704 32.7433 124.653 32.6113 124.653 32.45V26.356C124.653 25.7547 124.565 25.2853 124.389 24.948C124.213 24.596 123.978 24.3467 123.685 24.2C123.406 24.0533 123.098 23.98 122.761 23.98C122.453 23.98 122.152 24.0607 121.859 24.222C121.566 24.3687 121.324 24.6107 121.133 24.948C120.957 25.2853 120.869 25.7473 120.869 26.334V32.45C120.869 32.6113 120.818 32.7433 120.715 32.846C120.612 32.9487 120.488 33 120.341 33H118.119ZM140.959 33.22C140.182 33.22 139.485 33.0733 138.869 32.78C138.253 32.472 137.762 32.0613 137.395 31.548C137.028 31.0347 136.845 30.4627 136.845 29.832C136.845 28.7907 137.263 27.9693 138.099 27.368C138.95 26.7667 140.064 26.356 141.443 26.136L144.325 25.718V25.322C144.325 24.75 144.193 24.31 143.929 24.002C143.665 23.694 143.203 23.54 142.543 23.54C142.059 23.54 141.67 23.6353 141.377 23.826C141.084 24.0167 140.856 24.266 140.695 24.574C140.578 24.7647 140.409 24.86 140.189 24.86H138.099C137.938 24.86 137.813 24.816 137.725 24.728C137.637 24.6253 137.6 24.508 137.615 24.376C137.615 24.1267 137.71 23.8333 137.901 23.496C138.092 23.1587 138.385 22.8287 138.781 22.506C139.177 22.1687 139.683 21.89 140.299 21.67C140.915 21.45 141.67 21.34 142.565 21.34C143.489 21.34 144.281 21.45 144.941 21.67C145.601 21.89 146.129 22.198 146.525 22.594C146.921 22.99 147.214 23.452 147.405 23.98C147.596 24.4933 147.691 25.0507 147.691 25.652V32.45C147.691 32.6113 147.64 32.7433 147.537 32.846C147.434 32.9487 147.302 33 147.141 33H144.985C144.838 33 144.714 32.9487 144.611 32.846C144.508 32.7433 144.457 32.6113 144.457 32.45V31.636C144.266 31.9147 144.01 32.1787 143.687 32.428C143.364 32.6627 142.976 32.8533 142.521 33C142.081 33.1467 141.56 33.22 140.959 33.22ZM141.839 30.932C142.323 30.932 142.756 30.8293 143.137 30.624C143.518 30.4187 143.819 30.1033 144.039 29.678C144.259 29.2527 144.369 28.7173 144.369 28.072V27.698L142.323 28.028C141.531 28.16 140.952 28.358 140.585 28.622C140.218 28.886 140.035 29.2087 140.035 29.59C140.035 29.8687 140.116 30.1107 140.277 30.316C140.453 30.5213 140.68 30.6753 140.959 30.778C141.238 30.8807 141.531 30.932 141.839 30.932ZM150.883 33C150.736 33 150.611 32.9487 150.509 32.846C150.406 32.7433 150.355 32.6113 150.355 32.45V22.11C150.355 21.9633 150.406 21.8387 150.509 21.736C150.611 21.6187 150.736 21.56 150.883 21.56H153.039C153.185 21.56 153.31 21.6187 153.413 21.736C153.53 21.8387 153.589 21.9633 153.589 22.11V22.99C153.955 22.5353 154.403 22.1833 154.931 21.934C155.473 21.6847 156.097 21.56 156.801 21.56H157.747C157.893 21.56 158.018 21.6113 158.121 21.714C158.223 21.8167 158.275 21.9487 158.275 22.11V24.002C158.275 24.1633 158.223 24.2953 158.121 24.398C158.018 24.5007 157.893 24.552 157.747 24.552H155.811C155.165 24.552 154.659 24.7353 154.293 25.102C153.926 25.454 153.743 25.96 153.743 26.62V32.45C153.743 32.6113 153.691 32.7433 153.589 32.846C153.486 32.9487 153.354 33 153.193 33H150.883ZM160.465 33C160.304 33 160.172 32.9487 160.069 32.846C159.967 32.7433 159.915 32.6113 159.915 32.45V17.93C159.915 17.7687 159.967 17.6367 160.069 17.534C160.172 17.4313 160.304 17.38 160.465 17.38H162.621C162.768 17.38 162.893 17.4313 162.995 17.534C163.098 17.6367 163.149 17.7687 163.149 17.93V25.366L166.537 21.934C166.655 21.8313 166.757 21.7433 166.845 21.67C166.948 21.5967 167.102 21.56 167.307 21.56H169.793C169.94 21.56 170.057 21.6113 170.145 21.714C170.233 21.802 170.277 21.912 170.277 22.044C170.277 22.1027 170.263 22.1687 170.233 22.242C170.204 22.3153 170.153 22.374 170.079 22.418L165.833 26.686L170.629 32.164C170.761 32.2813 170.827 32.3987 170.827 32.516C170.827 32.648 170.776 32.7653 170.673 32.868C170.585 32.956 170.475 33 170.343 33H167.791C167.571 33 167.41 32.9633 167.307 32.89C167.219 32.8167 167.117 32.7287 166.999 32.626L163.149 28.314V32.45C163.149 32.6113 163.098 32.7433 162.995 32.846C162.893 32.9487 162.768 33 162.621 33H160.465ZM176.671 33.22C175.762 33.22 174.977 33.1173 174.317 32.912C173.672 32.692 173.144 32.428 172.733 32.12C172.337 31.812 172.037 31.504 171.831 31.196C171.641 30.8733 171.538 30.602 171.523 30.382C171.509 30.2207 171.56 30.0887 171.677 29.986C171.795 29.8833 171.912 29.832 172.029 29.832H174.163C174.207 29.832 174.251 29.8393 174.295 29.854C174.339 29.8687 174.383 29.9053 174.427 29.964C174.618 30.096 174.816 30.25 175.021 30.426C175.227 30.5873 175.461 30.7267 175.725 30.844C176.004 30.9613 176.349 31.02 176.759 31.02C177.243 31.02 177.654 30.9247 177.991 30.734C178.329 30.5287 178.497 30.2427 178.497 29.876C178.497 29.612 178.417 29.392 178.255 29.216C178.109 29.04 177.823 28.8787 177.397 28.732C176.972 28.5853 176.341 28.424 175.505 28.248C174.713 28.072 174.039 27.8373 173.481 27.544C172.924 27.2507 172.506 26.884 172.227 26.444C171.949 25.9893 171.809 25.4467 171.809 24.816C171.809 24.244 171.985 23.694 172.337 23.166C172.704 22.638 173.239 22.2053 173.943 21.868C174.647 21.516 175.527 21.34 176.583 21.34C177.39 21.34 178.094 21.4427 178.695 21.648C179.311 21.8387 179.825 22.088 180.235 22.396C180.646 22.6893 180.954 22.9973 181.159 23.32C181.379 23.628 181.497 23.8993 181.511 24.134C181.526 24.2807 181.482 24.4053 181.379 24.508C181.277 24.6107 181.159 24.662 181.027 24.662H179.069C178.996 24.662 178.93 24.6547 178.871 24.64C178.813 24.6107 178.761 24.574 178.717 24.53C178.541 24.4127 178.358 24.2807 178.167 24.134C177.991 23.9727 177.779 23.8333 177.529 23.716C177.28 23.5987 176.957 23.54 176.561 23.54C176.077 23.54 175.703 23.65 175.439 23.87C175.19 24.0753 175.065 24.3393 175.065 24.662C175.065 24.8673 175.131 25.058 175.263 25.234C175.395 25.41 175.667 25.5713 176.077 25.718C176.488 25.8647 177.111 26.0187 177.947 26.18C178.945 26.356 179.737 26.62 180.323 26.972C180.91 27.324 181.328 27.7347 181.577 28.204C181.841 28.6587 181.973 29.15 181.973 29.678C181.973 30.3673 181.768 30.9833 181.357 31.526C180.947 32.054 180.345 32.472 179.553 32.78C178.776 33.0733 177.815 33.22 176.671 33.22Z" fill="white"/>
<rect width="50" height="50" rx="25" fill="#FFE766"/>
<path d="M17.7699 35V14.6364H25.9233C27.4214 14.6364 28.6709 14.8584 29.6719 15.3026C30.6728 15.7467 31.4252 16.3632 31.929 17.152C32.4328 17.9342 32.6847 18.8357 32.6847 19.8565C32.6847 20.652 32.5256 21.3513 32.2074 21.9545C31.8892 22.5511 31.4517 23.0417 30.8949 23.4261C30.3447 23.804 29.715 24.0724 29.0057 24.2315V24.4304C29.7813 24.4635 30.5071 24.6823 31.1832 25.0866C31.866 25.491 32.4195 26.0578 32.8438 26.7869C33.268 27.5095 33.4801 28.3712 33.4801 29.3722C33.4801 30.4527 33.2116 31.4171 32.6747 32.2656C32.1444 33.1075 31.3589 33.7737 30.3182 34.2642C29.2775 34.7547 27.9948 35 26.4702 35H17.7699ZM22.0753 31.4801H25.5852C26.785 31.4801 27.66 31.2514 28.2102 30.794C28.7604 30.33 29.0355 29.7135 29.0355 28.9446C29.0355 28.3812 28.8996 27.884 28.6278 27.4531C28.3561 27.0223 27.9683 26.6842 27.4645 26.4389C26.9673 26.1937 26.3741 26.071 25.6847 26.071H22.0753V31.4801ZM22.0753 23.1577H25.267C25.857 23.1577 26.3807 23.0549 26.8381 22.8494C27.3021 22.6373 27.6667 22.339 27.9318 21.9545C28.2036 21.5701 28.3395 21.1094 28.3395 20.5724C28.3395 19.8366 28.0777 19.2434 27.554 18.7926C27.0369 18.3419 26.3011 18.1165 25.3466 18.1165H22.0753V23.1577Z" fill="#0A0A0A"/>
</svg>
